<svg width="22" height="20" viewBox="0 0 22 20" fill="none" xmlns="http://www.w3.org/2000/svg">
<path fill-rule="evenodd" clip-rule="evenodd" d="M5.19925 12.8047C4.48892 12.8047 4.26115 11.7651 5.14673 11.549L9.98641 10.2871C11.0058 10.0307 10.8303 9.93239 11.9831 10.2747L14.876 11.0342C15.2566 11.1386 17.0254 11.517 17.2353 11.7256C17.331 11.8206 17.4028 11.9537 17.4221 12.1382C17.4561 12.4641 17.223 12.8048 16.8008 12.8048C16.5168 12.8048 14.2478 12.1666 13.9132 12.083C13.4236 11.9607 12.9724 11.844 12.4859 11.7057L11.0001 11.3439C10.8066 11.3439 8.52517 11.9741 8.12119 12.0742L5.97251 12.6326C5.74652 12.6924 5.47021 12.8048 5.19938 12.8048L5.19925 12.8047ZM22 18.5326V18.6431C21.9872 18.8105 21.918 18.9681 21.8158 19.0659C21.3272 19.5336 20.0229 19.0478 19.5566 18.8573C19.0552 18.6524 18.751 18.3905 18.0038 18.3905C16.3264 18.3905 16.3432 19.2499 14.5233 19.2499C13.4382 19.2499 13.1064 19.058 12.2896 18.6905C12.1561 18.6305 12.0976 18.5922 11.9298 18.5348C11.3412 18.333 10.623 18.3407 10.0376 18.5453L9.32408 18.863C8.29274 19.3896 6.79323 19.3749 5.75708 18.8637C5.25272 18.615 4.8855 18.3904 4.12498 18.3904C3.2043 18.3904 3.07334 18.5929 2.41882 18.8757C0.810303 19.5705 0.101064 19.2131 0 18.7388V18.4903C0.0304426 18.3389 0.114775 18.1915 0.244636 18.0765C0.583207 17.7763 1.0618 18.0796 1.86181 17.6741C4.11703 16.531 4.24346 17.6973 3.69536 16.3279C3.42178 15.6445 1.6328 11.242 1.6328 10.9998C1.6328 10.7624 1.80146 10.656 2.00222 10.5958L3.80904 10.1252C5.30004 9.68939 7.05308 9.31229 8.61183 8.8695L10.4232 8.40353C10.5651 8.36322 10.8802 8.25928 10.9999 8.25928C11.1746 8.25928 15.4958 9.4261 15.8033 9.50509C16.8614 9.77702 18.396 10.1433 19.4166 10.4463C19.7614 10.5488 20.3671 10.5739 20.3671 10.9998C20.3671 11.252 18.4709 15.9068 18.1453 16.7277C18.1101 16.8164 18.1049 16.8094 18.0676 16.9136C17.9609 17.2123 18.1323 17.0276 18.6608 17.1318C20.0544 17.4069 19.8479 17.8251 21.2675 17.9197C21.7733 17.9535 21.9775 18.2416 21.9999 18.5324L22 18.5326Z" fill="#FF6600"/>
<path fill-rule="evenodd" clip-rule="evenodd" d="M4.38278 8.67955L10.9999 6.96091L15.1338 8.02627C15.4199 8.10471 15.6699 8.15092 15.9566 8.23471C16.2406 8.31767 16.487 8.36594 16.7731 8.44959C16.9974 8.51513 17.4549 8.60166 17.6172 8.67969V4.94142C17.6175 4.50452 17.6669 4.08203 17.2305 4.08203H4.76962C4.33327 4.08203 4.38264 4.50452 4.38291 4.94142V8.67969L4.38278 8.67955Z" fill="#FF6600"/>
<path fill-rule="evenodd" clip-rule="evenodd" d="M9.0234 1.46097V2.66414C9.0234 2.76315 9.05329 2.79304 9.15229 2.79304H12.8477C12.9467 2.79304 12.9765 2.76315 12.9765 2.66414C12.9765 1.95628 13.0756 0.925757 12.7326 0.458833C12.5757 0.245323 12.2472 0 11.9023 0H10.0975C9.76788 0 9.43205 0.237917 9.28559 0.434149C9.07921 0.710601 9.02325 0.990345 9.02325 1.46097H9.0234Z" fill="#FF6600"/>
</svg>
