<svg width="52" height="20" viewBox="0 0 52 20" fill="none" xmlns="http://www.w3.org/2000/svg">
<path d="M1.41964 11.0422C4.23614 7.84133 7.71602 5.29236 11.8593 3.39527C16.0025 1.49817 20.4809 0.395769 25.2945 0.0880491C30.107 -0.220572 34.6882 0.301337 39.0382 1.65378C43.3881 3.00622 47.1631 5.08945 50.3632 7.90348C50.8239 8.30885 51.0726 8.80029 51.1093 9.37782C51.1461 9.95534 50.9616 10.4746 50.5561 10.9355L45.0808 17.1579C44.7653 17.5164 44.3619 17.7293 43.8704 17.7965C43.3789 17.8638 42.9447 17.7771 42.568 17.5365L36.3146 13.8059C35.8601 13.4967 35.5258 13.1799 35.3119 12.8554C35.0979 12.5308 34.9787 12.176 34.9542 11.791L34.4704 4.75477C33.0728 4.43365 31.6232 4.23667 30.1216 4.16384C28.6199 4.091 27.0869 4.11683 25.5224 4.24132C24.0305 4.33699 22.5622 4.52152 21.1173 4.7949C19.6725 5.06829 18.241 5.44423 16.8227 5.92273L17.2544 12.7086C17.2819 13.1418 17.1894 13.5947 16.9769 14.0674C16.7644 14.5401 16.4758 14.9331 16.1111 15.2464L10.3721 19.6012C9.95424 19.8696 9.50931 20.0005 9.03728 19.9941C8.56525 19.9876 8.16339 19.8385 7.8317 19.5466L1.6125 14.0742C1.15182 13.6688 0.903112 13.1773 0.866374 12.5998C0.82964 12.0223 1.01406 11.5031 1.41964 11.0422Z" fill="white"/>
</svg>
