<svg width="9" height="9" viewBox="0 0 9 9" fill="none" xmlns="http://www.w3.org/2000/svg">
<path d="M8.71277 0H2.58511C2.50893 0 2.43587 0.030262 2.382 0.0841289C2.32813 0.137996 2.29787 0.211055 2.29787 0.287234V2.29787H0.287234C0.211055 2.29787 0.137996 2.32813 0.0841289 2.382C0.030262 2.43587 0 2.50893 0 2.58511V8.71277C0 8.78895 0.030262 8.86201 0.0841289 8.91587C0.137996 8.96974 0.211055 9 0.287234 9H6.41489C6.49107 9 6.56413 8.96974 6.618 8.91587C6.67187 8.86201 6.70213 8.78895 6.70213 8.71277V6.70213H8.71277C8.78895 6.70213 8.86201 6.67187 8.91587 6.618C8.96974 6.56413 9 6.49107 9 6.41489V0.287234C9 0.211055 8.96974 0.137996 8.91587 0.0841289C8.86201 0.030262 8.78895 0 8.71277 0ZM6.12766 8.42553H0.574468V2.87234H6.12766V8.42553ZM8.42553 6.12766H6.70213V2.58511C6.70213 2.50893 6.67187 2.43587 6.618 2.382C6.56413 2.32813 6.49107 2.29787 6.41489 2.29787H2.87234V0.574468H8.42553V6.12766Z" fill="#FF6600"/>
</svg>
