<svg width="19" height="25" viewBox="0 0 19 25" fill="none" xmlns="http://www.w3.org/2000/svg">
<path fill-rule="evenodd" clip-rule="evenodd" d="M0.799988 3.80039C0.799988 3.03126 1.10552 2.29364 1.64938 1.74978C2.19323 1.20593 2.93086 0.900391 3.69999 0.900391H10.3497C11.1188 0.900555 11.8563 1.2062 12.4 1.75009L17.3503 6.70039C17.8942 7.24412 18.1998 7.98163 18.2 8.75069V21.2004C18.2 21.9695 17.8945 22.7071 17.3506 23.251C16.8067 23.7949 16.0691 24.1004 15.3 24.1004H3.69999C2.93086 24.1004 2.19323 23.7949 1.64938 23.251C1.10552 22.7071 0.799988 21.9695 0.799988 21.2004V3.80039ZM3.69999 12.5004C3.69999 12.1158 3.85276 11.747 4.12468 11.4751C4.39661 11.2032 4.76542 11.0504 5.14999 11.0504H13.85C14.2346 11.0504 14.6034 11.2032 14.8753 11.4751C15.1472 11.747 15.3 12.1158 15.3 12.5004C15.3 12.885 15.1472 13.2538 14.8753 13.5257C14.6034 13.7976 14.2346 13.9504 13.85 13.9504H5.14999C4.76542 13.9504 4.39661 13.7976 4.12468 13.5257C3.85276 13.2538 3.69999 12.885 3.69999 12.5004ZM5.14999 16.8504C4.76542 16.8504 4.39661 17.0032 4.12468 17.2751C3.85276 17.547 3.69999 17.9158 3.69999 18.3004C3.69999 18.685 3.85276 19.0538 4.12468 19.3257C4.39661 19.5976 4.76542 19.7504 5.14999 19.7504H13.85C14.2346 19.7504 14.6034 19.5976 14.8753 19.3257C15.1472 19.0538 15.3 18.685 15.3 18.3004C15.3 17.9158 15.1472 17.547 14.8753 17.2751C14.6034 17.0032 14.2346 16.8504 13.85 16.8504H5.14999Z" fill="#FF6600"/>
</svg>
