<svg width="20" height="20" viewBox="0 0 49 44" fill="none" xmlns="http://www.w3.org/2000/svg">
<path d="M8.47874 43.0179V32.7227H0V25.292H8.47874V16.9458H0V9.51505H8.47874V0H14.3266L20.687 9.51505H36.8969V0H42.3644V9.51505H49V16.9458H42.3644V25.292H49V32.7227H42.3644V43.0179H36.5165L29.6347 32.7227H13.946V43.0179H8.47874ZM24.6676 25.2921L19.0887 16.9459H13.946V25.2921H24.6676ZM31.2329 25.2921H36.8969V16.9459H25.6539L31.2329 25.2921ZM36.8969 32.7229H36.1999L36.8969 33.7655V32.7229ZM14.1216 9.51531L13.946 9.25266V9.51531H14.1216Z" fill="black"/>
</svg>
