<svg width="10" height="10" viewBox="0 0 14 12" fill="none" xmlns="http://www.w3.org/2000/svg">
<path d="M2.71429 10.5V2.289C2.71423 2.11449 2.78041 1.94491 2.90245 1.80689C3.02448 1.66887 3.19545 1.57022 3.38851 1.52644C3.58157 1.48267 3.78578 1.49624 3.96907 1.56503C4.15235 1.63382 4.30433 1.75393 4.40114 1.9065L9.59886 10.0935C9.69567 10.2461 9.84765 10.3662 10.0309 10.435C10.2142 10.5038 10.4184 10.5173 10.6115 10.4736C10.8045 10.4298 10.9755 10.3311 11.0976 10.1931C11.2196 10.0551 11.2858 9.88551 11.2857 9.711V1.5M1 4.5H13M1 7.5H13" stroke="black" stroke-width="2" stroke-linecap="round" stroke-linejoin="round"/>
</svg>
