<svg width="22" height="18" viewBox="0 0 22 18" fill="none" xmlns="http://www.w3.org/2000/svg">
<path fill-rule="evenodd" clip-rule="evenodd" d="M8.69435 0H12.8064C14.6444 0 16.1004 1.19209e-07 17.2394 0.153C18.4114 0.311 19.3603 0.643 20.1094 1.391C20.8573 2.14 21.1894 3.089 21.3474 4.261C21.4374 4.934 21.4744 5.717 21.4894 6.624C21.5024 6.70001 21.5038 6.77758 21.4934 6.854C21.5004 7.42 21.5004 8.032 21.5004 8.694V8.806C21.5004 10.644 21.5004 12.1 21.3474 13.239C21.1894 14.411 20.8573 15.36 20.1094 16.109C19.3603 16.857 18.4114 17.189 17.2394 17.347C16.0994 17.5 14.6444 17.5 12.8064 17.5H8.69435C6.85635 17.5 5.40035 17.5 4.26135 17.347C3.08935 17.189 2.14035 16.857 1.39135 16.109C0.643351 15.36 0.311351 14.411 0.153351 13.239C0.000351295 12.099 0.000351292 10.644 0.000351292 8.806V8.694C0.000351292 8.032 0.000351261 7.42 0.00735126 6.854C-0.00337042 6.77763 -0.00235872 6.70007 0.0103513 6.624C0.0263513 5.717 0.0633513 4.934 0.153351 4.261C0.311351 3.089 0.643351 2.14 1.39135 1.391C2.14035 0.643 3.08935 0.311 4.26135 0.153C5.40135 1.19209e-07 6.85635 0 8.69435 0ZM1.50235 7.5C1.50035 7.888 1.50035 8.304 1.50035 8.75C1.50035 10.657 1.50235 12.012 1.64035 13.04C1.77535 14.045 2.02935 14.625 2.45235 15.048C2.87535 15.471 3.45535 15.725 4.46135 15.86C5.48935 15.998 6.84335 16 8.75035 16H12.7504C14.6574 16 16.0124 15.998 17.0404 15.86C18.0454 15.725 18.6254 15.471 19.0484 15.048C19.4714 14.625 19.7254 14.045 19.8604 13.039C19.9984 12.011 20.0004 10.657 20.0004 8.75C20.0004 8.304 20.0004 7.888 19.9984 7.5H1.50235ZM19.9744 6H1.52635C1.54635 5.413 1.58035 4.906 1.64035 4.46C1.77535 3.455 2.02935 2.875 2.45235 2.452C2.87535 2.029 3.45535 1.775 4.46135 1.64C5.48935 1.502 6.84335 1.5 8.75035 1.5H12.7504C14.6574 1.5 16.0124 1.502 17.0404 1.64C18.0454 1.775 18.6254 2.029 19.0484 2.452C19.4714 2.875 19.7254 3.455 19.8604 4.461C19.9204 4.906 19.9544 5.413 19.9744 6ZM4.00035 12.75C4.00035 12.5511 4.07937 12.3603 4.22002 12.2197C4.36067 12.079 4.55144 12 4.75035 12H8.75035C8.94926 12 9.14003 12.079 9.28068 12.2197C9.42133 12.3603 9.50035 12.5511 9.50035 12.75C9.50035 12.9489 9.42133 13.1397 9.28068 13.2803C9.14003 13.421 8.94926 13.5 8.75035 13.5H4.75035C4.55144 13.5 4.36067 13.421 4.22002 13.2803C4.07937 13.1397 4.00035 12.9489 4.00035 12.75ZM10.5004 12.75C10.5004 12.5511 10.5794 12.3603 10.72 12.2197C10.8607 12.079 11.0514 12 11.2504 12H12.7504C12.9493 12 13.14 12.079 13.2807 12.2197C13.4213 12.3603 13.5004 12.5511 13.5004 12.75C13.5004 12.9489 13.4213 13.1397 13.2807 13.2803C13.14 13.421 12.9493 13.5 12.7504 13.5H11.2504C11.0514 13.5 10.8607 13.421 10.72 13.2803C10.5794 13.1397 10.5004 12.9489 10.5004 12.75Z" fill="#FF6600"/>
</svg>
