<svg width="16" height="20" viewBox="0 0 16 20" fill="none" xmlns="http://www.w3.org/2000/svg">
<path fill-rule="evenodd" clip-rule="evenodd" d="M0.799999 2.7999C0.799999 2.16338 1.05286 1.55293 1.50294 1.10285C1.95303 0.652759 2.56348 0.399902 3.2 0.399902H8.7032C9.33967 0.400038 9.95002 0.652984 10.4 1.1031L14.4968 5.1999C14.9469 5.64988 15.1999 6.26023 15.2 6.8967V17.1999C15.2 17.8364 14.9471 18.4469 14.4971 18.897C14.047 19.347 13.4365 19.5999 12.8 19.5999H3.2C2.56348 19.5999 1.95303 19.347 1.50294 18.897C1.05286 18.4469 0.799999 17.8364 0.799999 17.1999V2.7999ZM3.2 9.9999C3.2 9.68164 3.32643 9.37642 3.55147 9.15137C3.77652 8.92633 4.08174 8.7999 4.4 8.7999H11.6C11.9183 8.7999 12.2235 8.92633 12.4485 9.15137C12.6736 9.37642 12.8 9.68164 12.8 9.9999C12.8 10.3182 12.6736 10.6234 12.4485 10.8484C12.2235 11.0735 11.9183 11.1999 11.6 11.1999H4.4C4.08174 11.1999 3.77652 11.0735 3.55147 10.8484C3.32643 10.6234 3.2 10.3182 3.2 9.9999ZM4.4 13.5999C4.08174 13.5999 3.77652 13.7263 3.55147 13.9514C3.32643 14.1764 3.2 14.4816 3.2 14.7999C3.2 15.1182 3.32643 15.4234 3.55147 15.6484C3.77652 15.8735 4.08174 15.9999 4.4 15.9999H11.6C11.9183 15.9999 12.2235 15.8735 12.4485 15.6484C12.6736 15.4234 12.8 15.1182 12.8 14.7999C12.8 14.4816 12.6736 14.1764 12.4485 13.9514C12.2235 13.7263 11.9183 13.5999 11.6 13.5999H4.4Z" fill="#FF6600"/>
</svg>
