<svg width="23" height="18" viewBox="0 0 23 18" fill="none" xmlns="http://www.w3.org/2000/svg">
<path fill-rule="evenodd" clip-rule="evenodd" d="M18.7831 11.9667C17.9423 11.9667 16.5904 12.1377 16.5904 11.2077C16.5904 10.3071 17.9019 8.98945 18.7831 8.98945C19.4845 8.98945 20.1325 9.5654 20.1325 10.2736V10.7407C20.1325 11.4219 19.4647 11.9665 18.7831 11.9665V11.9667ZM2.92794 10.6825V10.2739C2.92794 9.18543 4.49783 8.1899 5.92563 10.0218C6.03271 10.1592 6.06724 10.1997 6.16745 10.3545C6.71569 11.2002 6.59804 11.9667 5.28933 11.9667C4.46775 11.9667 3.88197 12.0814 3.33578 11.6015C3.14341 11.4327 2.92794 11.0311 2.92794 10.6823V10.6825ZM8.66275 3.03541H14.3976C16.4743 3.03541 16.5873 5.3832 17.265 6.71311H5.79522C5.94609 6.41707 6.13329 5.8937 6.25167 5.55245C6.38581 5.16586 6.54089 4.7273 6.71317 4.33871C7.03403 3.61499 7.67466 3.03541 8.66262 3.03541H8.66275ZM3.2091 5.25367C2.62813 5.25367 2.04717 5.25367 1.46621 5.25367C0.048024 5.25367 -0.152406 5.21495 0.0847198 6.33763C0.350599 7.59646 0.328223 7.53026 1.635 7.53026C1.3305 8.00242 0.735339 8.56651 0.735339 9.51494V12.2002C0.735339 12.6876 1.02853 13.3744 1.23377 13.6674C1.46476 13.9972 1.41388 13.9376 1.41039 14.4764C1.40173 15.8313 1.13296 17.9793 2.92806 17.9793C4.01311 17.9793 5.79546 18.2338 5.79546 16.4032V15.0022H17.2652C17.2652 16.0793 17.1037 16.9108 17.699 17.5288C18.2943 18.1469 19.0952 17.9793 20.1326 17.9793C22.1245 17.9793 21.5734 15.3887 21.6467 14.064C21.6733 13.5821 22.3253 13.2165 22.3253 12.2002V9.4566C22.3253 9.07738 22.1477 8.58899 22.0069 8.32793C21.9273 8.18079 21.8102 7.9928 21.7163 7.87064C21.5933 7.71038 21.4798 7.64293 21.3695 7.4718C21.629 7.4718 21.904 7.48204 22.1609 7.47617C22.3845 7.47105 22.5692 7.45556 22.7051 7.16565C22.7939 6.97616 23 5.98389 23 5.66225C23 5.05806 21.9597 5.25367 21.6506 5.25367C21.0321 5.25367 20.4138 5.25367 19.7953 5.25367C19.7243 4.9374 19.5638 4.59115 19.4495 4.27001C19.0467 3.13771 18.8197 2.51816 18.0662 1.62007C17.2846 0.688373 15.7005 0 14.3978 0H8.66299C7.81663 0 7.17166 0.224459 6.54967 0.49114C6.27561 0.608554 5.94874 0.815655 5.73026 0.983033C4.52959 1.90336 4.14413 2.85742 3.60286 4.26139C3.48436 4.56854 3.35131 4.97512 3.20922 5.25379L3.2091 5.25367Z" fill="#FF6600"/>
</svg>
