<svg width="23" height="22" viewBox="0 0 23 22" fill="none" xmlns="http://www.w3.org/2000/svg">
<path fill-rule="evenodd" clip-rule="evenodd" d="M16.8008 17.4023C15.9687 17.4023 15.3632 16.7347 15.3632 16.1993V15.8985C15.3632 15.3268 16.0234 14.6953 16.6211 14.6953C17.1322 14.6953 17.3888 14.7191 17.8013 15.1133C18.6653 15.9394 18.0053 17.4023 16.8008 17.4023ZM23 8.59382V9.7122C22.9658 10.046 22.8628 10.3399 22.5863 10.6044C22.1135 11.0566 21.6877 11.0002 21.1133 11.0002V17.6173C21.1133 17.9798 21.0675 18.323 20.974 18.6013C20.7606 19.2362 19.9526 20.0931 19.1818 20.1095C19.1818 20.6707 19.2237 21.1166 18.7843 21.577C18.6299 21.7388 18.1941 22 17.879 22H15.6778C15.342 22 14.9668 21.7746 14.7887 21.6044C14.3159 21.1522 14.3749 20.7448 14.3749 20.1953H8.6249V20.754C8.6249 21.3505 7.94588 22 7.32225 22H5.12103C4.7994 22 4.35083 21.7299 4.19524 21.5535C3.77153 21.073 3.81822 20.6866 3.81822 20.1093C3.24223 20.0971 2.69347 19.5955 2.41142 19.2636C2.04357 18.8308 1.88671 18.3793 1.88671 17.6172V11H1.30265C0.679027 11 0 10.3505 0 9.75384V8.54235C0.0346636 8.07029 0.166353 7.67968 0.597195 7.1884C1.09736 6.61793 1.54672 6.60142 1.88671 6.44533C1.88671 5.71483 1.88671 4.98434 1.88671 4.25399C1.88671 2.5768 1.60228 1.37576 2.93818 0.404233C3.24002 0.184705 3.74525 0 4.17767 0H18.8222C19.5822 0 20.2404 0.436482 20.6717 0.981062C20.9186 1.29279 21.0335 1.75274 21.0949 2.16606C21.1548 2.56863 21.1133 5.75617 21.1133 6.44533C21.4594 6.60415 21.9042 6.61974 22.4028 7.1884C22.713 7.54221 23 7.97188 23 8.59368V8.59382ZM4.80668 16.0703C4.80668 15.6672 4.94581 15.3562 5.17611 15.1347C6.21444 14.1355 7.63675 14.9903 7.63675 15.8985V16.1133C7.63675 16.8184 6.99666 17.4023 6.19924 17.4023C5.46086 17.4023 4.80668 16.7766 4.80668 16.0703ZM3.86333 11.6017V6.74631C3.86333 6.03701 4.57227 5.5003 5.48049 5.5003H17.5195C18.4228 5.5003 19.1367 6.03353 19.1367 6.74631V11.6017C19.1367 12.1733 18.4765 12.8048 17.879 12.8048H5.12119C4.52352 12.8048 3.86333 12.1733 3.86333 11.6017ZM4.80668 3.22282C4.80668 2.45599 5.45928 1.84782 6.19924 1.84782H16.8008C18.2429 1.84782 18.7318 3.7783 17.4461 4.39873C17.2875 4.47534 17.1502 4.55482 16.9355 4.55482H6.06438C5.72804 4.55482 5.40815 4.33696 5.19859 4.13681C4.97509 3.92319 4.80652 3.62705 4.80652 3.22282H4.80668Z" fill="#FF6600"/>
</svg>
