<svg width="18" height="18" viewBox="0 0 18 18" fill="none" xmlns="http://www.w3.org/2000/svg">
<path fill-rule="evenodd" clip-rule="evenodd" d="M12 1C12 0.734784 12.1054 0.48043 12.2929 0.292893C12.4804 0.105357 12.7348 0 13 0H15C15.7956 0 16.5587 0.316071 17.1213 0.87868C17.6839 1.44129 18 2.20435 18 3V5C18 5.26522 17.8946 5.51957 17.7071 5.70711C17.5196 5.89464 17.2652 6 17 6C16.7348 6 16.4804 5.89464 16.2929 5.70711C16.1054 5.51957 16 5.26522 16 5V3C16 2.73478 15.8946 2.48043 15.7071 2.29289C15.5196 2.10536 15.2652 2 15 2H13C12.7348 2 12.4804 1.89464 12.2929 1.70711C12.1054 1.51957 12 1.26522 12 1ZM0 9C0 8.60218 0.158035 8.22064 0.43934 7.93934C0.720644 7.65804 1.10218 7.5 1.5 7.5H16.5C16.8978 7.5 17.2794 7.65804 17.5607 7.93934C17.842 8.22064 18 8.60218 18 9C18 9.39782 17.842 9.77936 17.5607 10.0607C17.2794 10.342 16.8978 10.5 16.5 10.5H1.5C1.10218 10.5 0.720644 10.342 0.43934 10.0607C0.158035 9.77936 0 9.39782 0 9ZM5 18C5.26522 18 5.51957 17.8946 5.70711 17.7071C5.89464 17.5196 6 17.2652 6 17C6 16.7348 5.89464 16.4804 5.70711 16.2929C5.51957 16.1054 5.26522 16 5 16H3C2.73478 16 2.48043 15.8946 2.29289 15.7071C2.10536 15.5196 2 15.2652 2 15V13C2 12.7348 1.89464 12.4804 1.70711 12.2929C1.51957 12.1054 1.26522 12 1 12C0.734784 12 0.48043 12.1054 0.292893 12.2929C0.105357 12.4804 0 12.7348 0 13V15C0 15.7956 0.316071 16.5587 0.87868 17.1213C1.44129 17.6839 2.20435 18 3 18H5ZM17 12C17.2652 12 17.5196 12.1054 17.7071 12.2929C17.8946 12.4804 18 12.7348 18 13V15C18 15.7956 17.6839 16.5587 17.1213 17.1213C16.5587 17.6839 15.7956 18 15 18H13C12.7348 18 12.4804 17.8946 12.2929 17.7071C12.1054 17.5196 12 17.2652 12 17C12 16.7348 12.1054 16.4804 12.2929 16.2929C12.4804 16.1054 12.7348 16 13 16H15C15.2652 16 15.5196 15.8946 15.7071 15.7071C15.8946 15.5196 16 15.2652 16 15V13C16 12.7348 16.1054 12.4804 16.2929 12.2929C16.4804 12.1054 16.7348 12 17 12ZM0 5C0 5.26522 0.105357 5.51957 0.292893 5.70711C0.48043 5.89464 0.734784 6 1 6C1.26522 6 1.51957 5.89464 1.70711 5.70711C1.89464 5.51957 2 5.26522 2 5V3C2 2.73478 2.10536 2.48043 2.29289 2.29289C2.48043 2.10536 2.73478 2 3 2H5C5.26522 2 5.51957 1.89464 5.70711 1.70711C5.89464 1.51957 6 1.26522 6 1C6 0.734784 5.89464 0.48043 5.70711 0.292893C5.51957 0.105357 5.26522 0 5 0H3C2.20435 0 1.44129 0.316071 0.87868 0.87868C0.316071 1.44129 0 2.20435 0 3V5Z" fill="#FF6600"/>
</svg>
