<svg width="24" height="24" viewBox="0 0 24 24" fill="none" xmlns="http://www.w3.org/2000/svg">
<path d="M13.3565 0L6.67826 7.2H0V16.8H6.67826L13.3565 24V0ZM16.9363 2.0751L16.6122 3.37912C20.2342 4.42537 22.7478 7.95713 22.7478 12C22.7478 16.0428 20.2342 19.5746 16.6122 20.6209L16.9363 21.9249C21.0998 20.7221 24 16.6472 24 12C24 7.35278 21.0998 3.27788 16.9363 2.0751ZM16.072 5.55248L15.748 6.8565C17.9103 7.4811 19.4087 9.58665 19.4087 12C19.4087 14.4134 17.9103 16.5189 15.748 17.1435L16.072 18.4475C18.7758 17.6664 20.6609 15.0178 20.6609 12C20.6609 8.98215 18.7758 6.3336 16.072 5.55248ZM15.2077 9.0297L14.8838 10.3337C15.5861 10.5368 16.0696 11.216 16.0696 12C16.0696 12.784 15.5861 13.4633 14.8837 13.6663L15.2077 14.9703C16.4518 14.6109 17.3218 13.3886 17.3218 12C17.3218 10.6115 16.4518 9.3891 15.2077 9.0297Z" fill="black"/>
</svg>
