<svg width="16" height="19" viewBox="0 0 16 19" fill="none" xmlns="http://www.w3.org/2000/svg">
<path fill-rule="evenodd" clip-rule="evenodd" d="M12.3333 12.0236C12.8344 12.0236 13.1347 12.0703 13.5238 12.4264C13.5797 12.4775 13.6217 12.5405 13.6761 12.6078C14.0212 13.0343 14.0583 13.7256 13.8034 14.2018C13.1754 15.376 11.2073 15.2748 11.0081 13.5711C10.9202 12.8201 11.6724 12.0237 12.3333 12.0237V12.0236ZM7.18523 0.000129658H8.5844C11.0337 0.0180049 14.1023 0.211525 15.3497 1.87613C15.7404 2.39736 16 3.08064 16 3.97077V13.4337C16 15.4025 14.4785 16.9962 12.5186 16.9962C12.6235 17.1533 13.4177 17.9156 13.6574 18.1558C14.0576 18.5569 13.9999 18.3605 13.9999 19H12.037C11.8546 19 10.1079 16.9962 9.92591 16.9962H6.29632C6.11391 16.9962 4.36725 19 4.18522 19H2.00005C2.00005 18.3566 1.94097 18.5582 2.36112 18.1372C2.6008 17.8969 3.37556 17.1544 3.48144 16.996C1.52147 16.996 0 15.4024 0 13.4335V3.97064C0 3.09696 0.309364 2.34581 0.714389 1.86615C2.07529 0.255177 5.16489 0 7.18497 0L7.18523 0.000129658ZM3.51867 14.9923C2.74831 14.9923 2.03728 14.3207 2.03728 13.6565C2.03728 13.2746 2.04064 12.9582 2.32402 12.6079C2.8057 12.0126 3.61989 11.8523 4.20785 12.1867C4.89948 12.5801 5.19126 13.4083 4.85255 14.1395C4.71151 14.444 4.43175 14.7224 4.12317 14.8559C3.98536 14.9155 3.69578 14.9923 3.51867 14.9923ZM9.00002 4.00795H13.963V7.9786H9.00002V4.00795ZM2.03715 4.00795H6.99998V7.9786H2.03715V4.00795Z" fill="#FF6600"/>
</svg>
